<svg width="55" height="63" viewBox="0 0 55 63" fill="none" xmlns="http://www.w3.org/2000/svg">
<path d="M32.5449 2.70266C32.5449 1.21002 31.3353 0 29.8432 0C28.3511 0 27.1415 1.21002 27.1415 2.70266V6.05387C27.1415 7.5465 28.3511 8.75653 29.8432 8.75653C31.3353 8.75653 32.5449 7.5465 32.5449 6.05387V2.70266Z" fill="#2A2A72"/>
<path d="M12.6697 7.82633C11.5569 6.83194 9.84902 6.92825 8.855 8.04143C7.86098 9.15461 7.95725 10.8631 9.07003 11.8575L11.6694 14.1803C12.7821 15.1747 14.49 15.0784 15.484 13.9652C16.4781 12.852 16.3818 11.1435 15.269 10.1491L12.6697 7.82633Z" fill="#2A2A72"/>
<path d="M0 28.9924C0 27.4998 1.20958 26.2898 2.70168 26.2898H5.82992C7.32201 26.2898 8.53159 27.4998 8.53159 28.9924C8.53159 30.4851 7.32201 31.6951 5.82992 31.6951H2.70168C1.20958 31.6951 0 30.4851 0 28.9924Z" fill="#2A2A72"/>
<path d="M29.7413 11.5897C20.6156 11.5935 11.308 18.9282 11.308 29.7696C11.308 36.4119 15.4127 41.1993 18.5231 43.8943C20.4399 45.555 21.588 47.6119 21.588 49.5856V51.403C21.588 51.8508 21.9509 52.2138 22.3985 52.2138H29.7413V11.5897Z" fill="#2A2A72"/>
<path d="M22.3985 55.9494C21.9509 55.9494 21.5837 56.3139 21.6248 56.7598C21.9387 60.1638 24.2217 62.4593 26.9914 62.4593H32.8404C35.6067 62.4593 37.8874 60.1125 38.2057 56.7597C38.2481 56.3139 37.8808 55.9494 37.4332 55.9494H22.3985Z" fill="#2A2A72"/>
<path d="M33.8253 51.9107V11.6552C35.7867 10.5811 39.4262 9.67976 41.1042 12.6989C40.1787 13.1574 39.3633 13.7796 38.6973 14.5297C36.5723 16.923 36.0932 20.5135 38.3181 23.6504C38.8186 24.356 39.7964 24.5223 40.502 24.0218C41.2076 23.5214 41.3739 22.5436 40.8734 21.838C39.5295 19.9431 39.8388 17.9625 41.04 16.6097C41.4164 16.1857 41.8921 15.8137 42.4504 15.5298C46.6912 14.6234 49.294 18.4948 48.5514 21.6755C52.9081 22.4597 55.5221 25.5965 54.9122 29.6918C54.6276 31.6022 53.5391 33.2105 52.4104 34.3748C51.9726 33.83 51.4724 33.3503 50.9277 32.9447C48.4919 31.1308 44.8793 30.6907 42.4466 33.0963C41.8314 33.7046 41.8259 34.6964 42.4342 35.3115C43.0425 35.9267 44.0342 35.9322 44.6494 35.3239C45.6513 34.3332 47.4499 34.2608 49.0565 35.4573C49.8043 36.0141 50.4525 36.8272 50.8125 37.8668C51.0855 39.4563 50.7665 41.59 48.5514 43.3717C49.9312 46.712 47.6197 51.5049 43.129 51.1934C43.4028 50.4534 43.5473 49.6852 43.5673 48.9247C43.6365 46.3006 42.1458 43.4728 39.1667 42.9392C38.3152 42.7866 37.5012 43.3533 37.3487 44.2048C37.1962 45.0564 37.7628 45.8704 38.6144 46.0229C39.6127 46.2017 40.4775 47.2515 40.4356 48.8421C40.4183 49.4976 40.2328 50.2003 39.8245 50.8494C37.9877 53.2432 35.8673 53.3814 33.8253 51.9107Z" fill="#2A2A72"/>
</svg>
