<svg width="55" height="55" viewBox="0 0 55 55" fill="none" xmlns="http://www.w3.org/2000/svg">
<path fill-rule="evenodd" clip-rule="evenodd" d="M52.1622 0.214201C53.5498 0.353067 54.6473 1.45064 54.7861 2.83827C55.898 13.9573 52.567 23.5165 47.3106 30.195C46.04 31.8093 44.6387 33.2743 43.144 34.5567C44.9941 37.8668 45.4156 41.7496 43.86 45.3794C41.7614 50.2761 36.4794 53.7747 28.631 54.8955C27.7901 55.0156 26.9384 54.7649 26.2967 54.2083C25.655 53.6517 25.2865 52.844 25.2865 51.9946C25.2868 47.9179 25.8925 43.9568 26.8971 40.0158L14.952 28.017C14.7446 28.0695 14.5232 28.128 14.2863 28.1905C12.169 28.7494 8.80235 29.638 2.93041 29.6384C2.0976 29.6385 1.30412 29.2842 0.748258 28.664C0.192391 28.0439 -0.0733337 27.2165 0.017492 26.3887C0.898575 18.3579 4.24401 12.8737 9.2213 10.7406C12.9946 9.1236 17.045 9.71707 20.4977 11.7971C21.7671 10.3251 23.2137 8.94441 24.8056 7.69095C31.4833 2.43307 41.0421 -0.898638 52.1622 0.214201ZM38.282 37.8944C36.5376 38.8178 34.7312 39.4982 32.9072 39.896C32.7298 41.1357 32.446 42.3455 32.162 43.5556C31.7922 45.1319 31.4221 46.7088 31.2872 48.3536C35.5531 47.0991 37.6606 44.9675 38.4734 43.0709C39.1476 41.4978 39.1177 39.6645 38.282 37.8944ZM15.1284 22.0042C15.5359 20.1782 16.226 18.3707 17.1591 16.626C15.1527 15.5217 13.1443 15.4353 11.5297 16.1272C9.66672 16.9256 7.54894 19.0957 6.42715 23.6493C8.08653 23.5196 9.67715 23.1469 11.2662 22.7746C12.543 22.4755 13.8188 22.1766 15.1284 22.0042ZM38.5737 25.0569C36.2851 27.3455 32.5745 27.3455 30.2859 25.0569C27.9972 22.7682 27.9972 19.0576 30.2859 16.769C32.5745 14.4804 36.2851 14.4804 38.5737 16.769C40.8623 19.0576 40.8623 22.7682 38.5737 25.0569Z" fill="#2A2A72"/>
<path d="M21.19 46.8097C21.6338 45.3512 21.8724 43.6453 21.7134 42.2142L12.5851 33.3914C11.4774 33.3914 9.91976 33.5865 8.46287 33.9895C6.81183 34.4462 5.09874 35.1966 4.04537 36.6074C3.21283 37.6554 2.77834 38.8958 2.53153 40.0025C1.55038 44.4018 2.24945 50.4355 3.47976 51.6658C4.71006 52.8961 10.8676 53.7048 15.2438 52.6704C16.341 52.411 17.6041 51.9354 18.6323 50.9877C20.0448 49.8714 20.7988 48.0949 21.19 46.8097Z" fill="#2A2A72"/>
</svg>
