<svg width="55" height="50" viewBox="0 0 55 50" fill="none" xmlns="http://www.w3.org/2000/svg">
<path d="M30.771 22.7451C30.3168 22.5699 29.7382 22.5712 29.24 22.7122C28.7491 22.8512 28.2326 23.1582 28.0371 23.6946L23.0701 37.3178C22.886 37.8226 22.9993 38.3714 23.2342 38.8097C23.4696 39.2488 23.8588 39.6389 24.3226 39.8178C24.779 39.9939 25.3571 39.9868 25.8532 39.8406C26.3427 39.6964 26.8536 39.384 27.0481 38.8504L32.0151 25.2273C32.1987 24.7238 32.0888 24.1796 31.8551 23.7441C31.621 23.308 31.2334 22.9234 30.771 22.7451Z" fill="#2A2A72"/>
<path d="M21.348 25.7304C21.0788 25.2099 20.5561 24.8843 20.0204 24.7532C19.4845 24.622 18.8717 24.6689 18.3863 24.9733L11.3037 29.7769L11.3 29.7795C10.7897 30.1347 10.5273 30.8471 10.5273 31.4418C10.5273 31.7503 10.5961 32.0866 10.7191 32.3859C10.84 32.6804 11.0296 32.9777 11.2999 33.1659L18.525 38.0075C19.0545 38.3664 19.6648 38.364 20.1723 38.1845C20.6728 38.0075 21.1195 37.6437 21.348 37.2019C21.5495 36.8121 21.7008 36.3065 21.6622 35.7916C21.6225 35.2614 21.3807 34.7335 20.824 34.3503L16.1138 31.4349L20.7062 28.4671C21.1996 28.1596 21.4647 27.6694 21.5546 27.1722C21.6439 26.6786 21.5664 26.1528 21.348 25.7304Z" fill="#2A2A72"/>
<path d="M36.4782 24.9808L43.7023 29.8217C43.9727 30.0099 44.1622 30.3072 44.2832 30.6017C44.4062 30.901 44.4749 31.2373 44.4749 31.5458C44.4749 32.1405 44.2125 32.8529 43.7023 33.2081L43.6986 33.2107L36.616 38.0143C36.1305 38.3187 35.5178 38.3656 34.9818 38.2344C34.4461 38.1033 33.9234 37.7777 33.6543 37.2572C33.4358 36.8348 33.3584 36.309 33.4476 35.8154C33.5375 35.3182 33.8027 34.828 34.2961 34.5205L38.8884 31.5527L34.1782 28.6374C33.6216 28.2541 33.3798 27.7262 33.34 27.196C33.3015 26.6811 33.4527 26.1755 33.6543 25.7858C33.8828 25.3439 34.3294 24.9801 34.83 24.8031C35.3374 24.6236 35.9488 24.622 36.4782 24.9808Z" fill="#2A2A72"/>
<path fill-rule="evenodd" clip-rule="evenodd" d="M7.5 0C3.35786 0 0 3.35786 0 7.5V42.5C0 46.6421 3.35786 50 7.5 50H47.5C51.6421 50 55 46.6421 55 42.5V7.5C55 3.35786 51.6421 0 47.5 0H7.5ZM5 42.5V17.5101H50V42.5C50 43.8807 48.8807 45 47.5 45H7.5C6.11929 45 5 43.8807 5 42.5ZM12.5146 8.91504C12.5146 10.2957 11.3954 11.415 10.0146 11.415C8.63394 11.415 7.51465 10.2957 7.51465 8.91504C7.51465 7.53432 8.63394 6.41504 10.0146 6.41504C11.3954 6.41504 12.5146 7.53432 12.5146 8.91504ZM20.0146 8.91504C20.0146 10.2957 18.8954 11.415 17.5146 11.415C16.1339 11.415 15.0146 10.2957 15.0146 8.91504C15.0146 7.53432 16.1339 6.41504 17.5146 6.41504C18.8954 6.41504 20.0146 7.53432 20.0146 8.91504ZM25.0146 11.415C26.3954 11.415 27.5146 10.2957 27.5146 8.91504C27.5146 7.53432 26.3954 6.41504 25.0146 6.41504C23.6339 6.41504 22.5146 7.53432 22.5146 8.91504C22.5146 10.2957 23.6339 11.415 25.0146 11.415Z" fill="#2A2A72"/>
</svg>
