<svg width="55" height="53" viewBox="0 0 55 53" fill="none" xmlns="http://www.w3.org/2000/svg">
<path d="M8.25 24.4276L24.1494 31.5648C26.2825 32.5224 28.7175 32.5224 30.8506 31.5648L46.75 24.4276V42.5285C46.75 46.3635 38.1315 52.25 27.5 52.25C16.8685 52.25 8.25 46.3635 8.25 42.5285V24.4276Z" fill="#2A2A72"/>
<path d="M30.8506 0.718184C28.7175 -0.239396 26.2825 -0.239394 24.1494 0.718185L1.63312 10.8257C0.640017 11.2716 0 12.2663 0 13.3639C0 14.4616 0.640017 15.4563 1.63312 15.9021L24.1494 26.0097C26.2825 26.9673 28.7175 26.9672 30.8506 26.0097L53.3669 15.9021C54.36 15.4563 55 14.4616 55 13.3639C55 12.2663 54.36 11.2716 53.3669 10.8257L30.8506 0.718184Z" fill="#2A2A72"/>
</svg>
