<svg width="55" height="55" viewBox="0 0 55 55" fill="none" xmlns="http://www.w3.org/2000/svg">
<path fill-rule="evenodd" clip-rule="evenodd" d="M0.344734 1.41689C0.829355 0.542512 1.75031 0 2.75 0H52.25C53.2497 0 54.1706 0.542512 54.6553 1.41689C55.1399 2.29126 55.1118 3.35976 54.582 4.2075L42.4488 23.6207C45.1382 26.9311 46.75 31.1523 46.75 35.75C46.75 46.3815 38.1315 55 27.5 55C16.8685 55 8.25 46.3815 8.25 35.75C8.25 31.1523 9.86182 26.9311 12.5512 23.6207L0.418006 4.2075C-0.111831 3.35976 -0.139886 2.29126 0.344734 1.41689ZM47.2883 5.5L38.3301 19.8332C37.0943 18.9907 35.7553 18.2884 34.336 17.7491L41.5947 5.5H47.2883ZM35.2016 5.5L28.6626 16.5345C28.278 16.5116 27.8903 16.5 27.5 16.5C27.1097 16.5 26.722 16.5116 26.3374 16.5345L19.7984 5.5H35.2016ZM13.4053 5.5L20.664 17.7491C19.2447 18.2884 17.9057 18.9907 16.6699 19.8332L7.71168 5.5H13.4053ZM30.7599 32.5942L28.473 28.0896C28.3803 27.9124 28.2409 27.7638 28.07 27.6599C27.8991 27.5561 27.7031 27.5008 27.5031 27.5C27.3031 27.4993 27.1067 27.5531 26.935 27.6557C26.7634 27.7583 26.6229 27.9057 26.5288 28.0822L24.2401 32.5869H20.3425C20.128 32.5817 19.9168 32.6413 19.7367 32.758C19.5565 32.8747 19.4158 33.043 19.3329 33.241C19.2499 33.439 19.2286 33.6574 19.2718 33.8676C19.3149 34.0779 19.4205 34.2703 19.5747 34.4196L23.1535 37.9419L21.1708 42.496C21.0834 42.7046 21.0637 42.9354 21.1145 43.1557C21.1653 43.3761 21.284 43.575 21.4539 43.7242C21.6238 43.8735 21.8363 43.9656 22.0613 43.9876C22.2864 44.0095 22.5126 43.9603 22.7082 43.8467L27.5 41.1509L32.2918 43.854C32.4874 43.9676 32.7136 44.0169 32.9387 43.9949C33.1637 43.9729 33.3762 43.8808 33.5461 43.7315C33.716 43.5823 33.8347 43.3834 33.8855 43.1631C33.9363 42.9427 33.9166 42.7119 33.8292 42.5034L31.8465 37.9492L35.4253 34.4269C35.5795 34.2776 35.6851 34.0852 35.7282 33.875C35.7714 33.6647 35.7501 33.4463 35.6671 33.2483C35.5842 33.0504 35.4435 32.882 35.2633 32.7653C35.0832 32.6486 34.872 32.589 34.6575 32.5942H30.7599Z" fill="#2A2A72"/>
</svg>
