<svg width="55" height="55" viewBox="0 0 55 55" fill="none" xmlns="http://www.w3.org/2000/svg">
<path d="M54.9833 8.80276C55.0874 8.29555 54.691 7.82911 54.1733 7.83274L47.1203 7.88217L47.1671 0.827581C47.1706 0.309475 46.7027 -0.0866365 46.195 0.0163901C38.4058 1.5968 34.8251 5.6156 34.4265 14.2251C30.9222 11.914 26.7247 10.5689 22.2129 10.5689C9.94507 10.5689 0 20.514 0 32.7819C0 45.0497 9.94507 54.9948 22.2129 54.9948C34.4808 54.9948 44.4259 45.0497 44.4259 32.7819C44.4259 31.342 44.3199 30.1523 44.1372 29.1914C43.9147 27.8224 43.5671 26.4954 43.1065 25.2225C42.9712 24.8486 42.4951 24.7516 42.214 25.0327L36.2939 30.9528C36.115 31.1316 36.0286 31.382 36.0493 31.6341C36.0802 32.0126 36.096 32.3954 36.096 32.7819C36.096 40.4493 29.8804 46.665 22.2129 46.665C14.5455 46.665 8.32985 40.4493 8.32985 32.7819C8.32985 25.1144 14.5455 18.8988 22.2129 18.8988C25.2172 18.8988 27.2674 19.6198 29.3538 20.8736L25.2172 25.0102C24.2852 24.6497 23.2722 24.452 22.2129 24.452C17.6125 24.452 13.8831 28.1814 13.8831 32.7819C13.8831 37.3823 17.6125 41.1117 22.2129 41.1117C26.8134 41.1117 30.5428 37.3823 30.5428 32.7819C30.5428 31.6991 30.3362 30.6645 29.9603 29.7155L39.0593 20.6165C48.1175 20.6046 53.2183 17.4038 54.9833 8.80276Z" fill="#2A2A72"/>
</svg>
