<svg width="26" height="26" viewBox="0 0 26 26" fill="none" xmlns="http://www.w3.org/2000/svg">
<path d="M4.75 22C5.32646 21.3544 8.02631 18.3833 8.81751 18.3833H17.183C18.3295 18.3833 20.67 20.8461 21.25 21.7143M25 13C25 19.6274 19.6274 25 13 25C6.37258 25 1 19.6274 1 13C1 6.37258 6.37258 1 13 1C19.6274 1 25 6.37258 25 13ZM17.2985 8.90995C17.2985 6.62056 15.3659 4.75 13.0004 4.75C10.6349 4.75 8.70217 6.62056 8.70217 8.90995C8.70217 11.1993 10.6349 13.0699 13.0004 13.0699C15.3658 13.0699 17.2985 11.1993 17.2985 8.90995Z" stroke="white" stroke-width="2"/>
</svg>
