<svg width="188" height="60" viewBox="0 0 188 60" fill="none" xmlns="http://www.w3.org/2000/svg">
<path d="M0.83313 0.951214H42.963V10.9317H27.0826V58.9024H16.7133V10.9317H0.83313V0.951214ZM43.4343 58.9024L49.2353 20.6707C49.8154 16.861 50.6855 13.6683 51.8457 11.0927C53.0541 8.51707 54.6012 6.42439 56.4865 4.81463C58.42 3.20487 60.7163 2.05122 63.3752 1.35365C66.0822 0.656091 69.2243 0.307312 72.8018 0.307312C74.7353 0.307312 76.7416 0.44146 78.8204 0.709751C80.9473 0.924386 82.9776 1.27317 84.9114 1.75609L85.0564 2.72195C84.863 3.74147 84.7179 5.0561 84.6214 6.66585C84.5729 8.27561 84.5488 9.91218 84.5488 11.5756C84.5488 13.1854 84.5488 14.5268 84.5488 15.6V58.9024H74.1796V14.6341C74.1796 13.239 74.2036 11.978 74.2521 10.8512C74.3486 9.67072 74.4937 8.59756 74.6871 7.63171L76.1374 10.6098C75.5573 10.3951 74.8078 10.261 73.8895 10.2073C73.0194 10.1 72.1492 10.0463 71.2791 10.0463C68.6202 10.0463 66.4933 10.4488 64.898 11.2537C63.3508 12.0049 62.1666 13.1854 61.3449 14.7951C60.5228 16.4049 59.9187 18.4439 59.5321 20.9122L53.8761 58.9024H43.4343ZM51.8457 42.8854V33.3878H78.8204V42.8854H51.8457ZM111.479 37.8951H102.487V28.0756H110.971C113.388 28.0756 115.225 27.4854 116.482 26.3049C117.787 25.1244 118.778 23.5415 119.455 21.5561L126.996 0.951214H137.366V1.75609L128.737 24.6146C127.818 27.0829 126.561 29.3366 124.966 31.3756C123.419 33.4146 121.509 35.0244 119.237 36.2049C117.014 37.3317 114.427 37.8951 111.479 37.8951ZM96.9036 58.9024V0.951214H107.273V58.9024H96.9036ZM122.573 31.4561L137.873 58.0976V58.9024H126.706L114.234 36.1244L122.573 31.4561ZM145.469 0.951214H155.838V36.2854C155.838 41.0074 156.66 44.4684 158.304 46.6683C159.948 48.8682 162.606 49.9683 166.28 49.9683C169.906 49.9683 172.565 48.8682 174.257 46.6683C175.949 44.4684 176.794 41.0074 176.794 36.2854V0.951214H187.164V35.8829C187.164 43.7707 185.423 49.7535 181.943 53.8317C178.462 57.8561 173.241 59.8683 166.28 59.8683C159.126 59.8683 153.857 57.8561 150.472 53.8317C147.137 49.7535 145.469 43.7707 145.469 35.8829V0.951214Z" fill="white"/>
</svg>
