<svg width="26" height="26" viewBox="0 0 26 26" fill="none" xmlns="http://www.w3.org/2000/svg">
<path d="M8.5 17.5L17.5 8.5M9.19237 9.18668L9.17469 9.16881M16.8305 16.9034L16.8128 16.8855M7.90357 3.48416L6.63119 3.56165C4.97939 3.66225 3.66225 4.97939 3.56165 6.63119L3.48416 7.90357C3.43971 8.63346 3.15224 9.32746 2.66756 9.875L1.82265 10.8295C0.725784 12.0686 0.725784 13.9314 1.82265 15.1705L2.66757 16.125C3.15224 16.6725 3.43971 17.3665 3.48416 18.0964L3.56165 19.3688C3.66225 21.0206 4.97939 22.3378 6.63119 22.4384L7.90357 22.5158C8.63346 22.5603 9.32746 22.8478 9.875 23.3324L10.8295 24.1774C12.0686 25.2742 13.9314 25.2742 15.1705 24.1774L16.125 23.3324C16.6725 22.8478 17.3665 22.5603 18.0964 22.5158L19.3688 22.4384C21.0206 22.3378 22.3378 21.0206 22.4384 19.3688L22.5158 18.0964C22.5603 17.3665 22.8478 16.6725 23.3324 16.125L24.1774 15.1705C25.2742 13.9314 25.2742 12.0686 24.1774 10.8295L23.3324 9.875C22.8478 9.32746 22.5603 8.63346 22.5158 7.90357L22.4384 6.63119C22.3378 4.97939 21.0206 3.66225 19.3688 3.56165L18.0964 3.48416C17.3665 3.43971 16.6725 3.15224 16.125 2.66756L15.1705 1.82265C13.9314 0.725784 12.0686 0.725784 10.8295 1.82265L9.875 2.66757C9.32746 3.15224 8.63346 3.43971 7.90357 3.48416Z" stroke="white" stroke-width="2" stroke-linecap="round"/>
</svg>
