<svg width="26" height="26" viewBox="0 0 26 26" fill="none" xmlns="http://www.w3.org/2000/svg">
<path d="M7.05644 11.3479C6.63216 11.7014 6.57484 12.332 6.9284 12.7563C7.28197 13.1805 7.91253 13.2379 8.33681 12.8843L7.05644 11.3479ZM13 7.69662L13.6401 6.9284C13.2693 6.61936 12.7306 6.61936 12.3598 6.9284L13 7.69662ZM17.6631 12.8843C18.0874 13.2379 18.718 13.1805 19.0715 12.7563C19.4251 12.332 19.3678 11.7014 18.9435 11.3479L17.6631 12.8843ZM12 18.3033C12 18.8556 12.4477 19.3033 13 19.3033C13.5522 19.3033 14 18.8556 14 18.3033H12ZM8.33681 12.8843L13.6401 8.46485L12.3598 6.9284L7.05644 11.3479L8.33681 12.8843ZM12.3598 8.46485L17.6631 12.8843L18.9435 11.3479L13.6401 6.9284L12.3598 8.46485ZM12 7.69662V18.3033H14V7.69662H12ZM20.7782 5.22183C25.0739 9.51759 25.0739 16.4824 20.7782 20.7782L22.1924 22.1924C27.2692 17.1156 27.2692 8.88443 22.1924 3.80761L20.7782 5.22183ZM20.7782 20.7782C16.4824 25.0739 9.51759 25.0739 5.22183 20.7782L3.80761 22.1924C8.88443 27.2692 17.1156 27.2692 22.1924 22.1924L20.7782 20.7782ZM5.22183 20.7782C0.926058 16.4824 0.926058 9.51759 5.22183 5.22183L3.80761 3.80761C-1.2692 8.88443 -1.2692 17.1156 3.80761 22.1924L5.22183 20.7782ZM5.22183 5.22183C9.51759 0.926058 16.4824 0.926058 20.7782 5.22183L22.1924 3.80761C17.1156 -1.2692 8.88443 -1.2692 3.80761 3.80761L5.22183 5.22183Z" fill="white"/>
</svg>
