<svg width="27" height="26" viewBox="0 0 27 26" fill="none" xmlns="http://www.w3.org/2000/svg">
<path d="M3.66667 11.6667C3.66667 5.77563 8.4423 1 14.3333 1C20.2244 1 25 5.77563 25 11.6667C25 13.2 24.6765 14.6578 24.0939 15.9755L25.002 22.3323L19.5543 20.9704C18.0111 21.8383 16.23 22.3333 14.3333 22.3333M1.00126 18.3333C1.00126 19.2917 1.20346 20.2028 1.56752 21.0264L1 24.9994L4.40449 24.1482C5.36894 24.6906 6.48199 25 7.6673 25C11.3489 25 14.3333 22.0152 14.3333 18.3333C14.3333 14.6514 11.3489 11.6667 7.6673 11.6667C3.98575 11.6667 1.00126 14.6514 1.00126 18.3333Z" stroke="white" stroke-width="2" stroke-linecap="round" stroke-linejoin="round"/>
</svg>
