<svg width="26" height="26" viewBox="0 0 26 26" fill="none" xmlns="http://www.w3.org/2000/svg">
<path d="M24.5882 13.7059C24.5882 13.1536 24.1405 12.7059 23.5882 12.7059C23.0359 12.7059 22.5882 13.1536 22.5882 13.7059H24.5882ZM12.2941 3.41176C12.8464 3.41176 13.2941 2.96405 13.2941 2.41176C13.2941 1.85948 12.8464 1.41176 12.2941 1.41176V3.41176ZM18.9412 13.7059C18.9412 13.1536 18.4935 12.7059 17.9412 12.7059C17.3889 12.7059 16.9412 13.1536 16.9412 13.7059H18.9412ZM12.2941 9.05882C12.8464 9.05882 13.2941 8.61111 13.2941 8.05882C13.2941 7.50654 12.8464 7.05882 12.2941 7.05882V9.05882ZM17.9926 9.19401C18.3831 8.80349 18.3831 8.17032 17.9926 7.7798C17.602 7.38927 16.9689 7.38927 16.5784 7.7798L17.9926 9.19401ZM11.587 12.7711C11.1965 13.1617 11.1965 13.7948 11.587 14.1854C11.9775 14.5759 12.6107 14.5759 13.0012 14.1854L11.587 12.7711ZM24.7749 4.99307L25.482 5.70018C25.7498 5.43235 25.8433 5.03618 25.7235 4.67685C25.6038 4.31751 25.2912 4.05669 24.9163 4.00312L24.7749 4.99307ZM20.2826 9.48528L19.9664 10.434C20.3258 10.5537 20.7219 10.4602 20.9898 10.1924L20.2826 9.48528ZM16.2896 5.49221L15.5825 4.7851C15.3146 5.05293 15.2211 5.4491 15.3409 5.80844L16.2896 5.49221ZM20.7818 1L21.7717 0.858579C21.7182 0.483613 21.4573 0.171095 21.098 0.0513167C20.7387 -0.0684615 20.3425 0.025061 20.0747 0.292893L20.7818 1ZM17.2878 8.48701L16.3392 8.80324C16.4387 9.10185 16.673 9.33616 16.9716 9.4357L17.2878 8.48701ZM21.2809 4.49394L20.291 4.63536C20.3538 5.07534 20.6995 5.42104 21.1395 5.48389L21.2809 4.49394ZM22.5882 13.7059C22.5882 19.3912 17.9794 24 12.2941 24V26C19.084 26 24.5882 20.4957 24.5882 13.7059H22.5882ZM12.2941 24C6.60883 24 2 19.3912 2 13.7059H0C0 20.4957 5.50426 26 12.2941 26V24ZM2 13.7059C2 8.0206 6.60883 3.41176 12.2941 3.41176V1.41176C5.50426 1.41176 0 6.91603 0 13.7059H2ZM16.9412 13.7059C16.9412 16.2724 14.8606 18.3529 12.2941 18.3529V20.3529C15.9652 20.3529 18.9412 17.377 18.9412 13.7059H16.9412ZM12.2941 18.3529C9.72762 18.3529 7.64706 16.2724 7.64706 13.7059H5.64706C5.64706 17.377 8.62305 20.3529 12.2941 20.3529V18.3529ZM7.64706 13.7059C7.64706 11.1394 9.72762 9.05882 12.2941 9.05882V7.05882C8.62305 7.05882 5.64706 10.0348 5.64706 13.7059H7.64706ZM16.5784 7.7798L11.587 12.7711L13.0012 14.1854L17.9926 9.19401L16.5784 7.7798ZM24.0677 4.28597L19.5755 8.77817L20.9898 10.1924L25.482 5.70018L24.0677 4.28597ZM16.9967 6.19931L21.4889 1.70711L20.0747 0.292893L15.5825 4.7851L16.9967 6.19931ZM20.5989 8.5366L17.6041 7.53833L16.9716 9.4357L19.9664 10.434L20.5989 8.5366ZM18.2365 8.17079L17.2383 5.17598L15.3409 5.80844L16.3392 8.80324L18.2365 8.17079ZM19.7918 1.14142L20.291 4.63536L22.2709 4.35252L21.7717 0.858579L19.7918 1.14142ZM21.1395 5.48389L24.6334 5.98302L24.9163 4.00312L21.4223 3.50399L21.1395 5.48389Z" fill="white"/>
</svg>
