<svg width="853" height="852" viewBox="0 0 853 852" fill="none" xmlns="http://www.w3.org/2000/svg">
<path d="M284.894 122.552C284.894 122.552 155.782 188.326 91.3876 289.68C26.9935 391.034 32.0884 521.424 110.336 618.211C188.584 714.999 338.144 702.287 463.371 763.597C588.598 824.907 726.758 812.28 785.972 682.384C845.186 552.488 755.896 503.941 740.56 353.614C725.224 203.287 589.705 -16.8353 284.894 122.552Z" fill="#ADD8E6"/>
<path opacity="0.7" d="M284.894 122.552C284.894 122.552 155.782 188.326 91.3876 289.68C26.9935 391.034 32.0884 521.424 110.336 618.211C188.584 714.999 338.144 702.287 463.371 763.597C588.598 824.907 726.758 812.28 785.972 682.384C845.186 552.488 755.896 503.941 740.56 353.614C725.224 203.287 589.705 -16.8353 284.894 122.552Z" fill="#6F6AAB"/>
<path d="M210.446 644.93C215.558 643.226 224.623 634.893 224.623 634.876C224.623 634.859 217.33 630.634 216.836 630.429C211.094 628.009 198.569 626.714 194.019 632.014C193.3 632.915 192.777 633.957 192.483 635.073C192.19 636.189 192.133 637.353 192.315 638.492C192.498 639.632 192.917 640.72 193.545 641.687C194.173 642.655 194.996 643.481 195.962 644.112C199.983 646.975 206.016 646.361 210.446 644.93Z" fill="#9C9C9C"/>
<path d="M304.865 564.603C304.984 564.603 301.116 557.055 300.809 556.594C297.401 551.482 287.62 543.423 280.906 545.331C279.8 545.679 278.778 546.256 277.909 547.025C277.039 547.793 276.341 548.735 275.859 549.791C275.377 550.846 275.122 551.991 275.111 553.152C275.1 554.312 275.333 555.462 275.794 556.526C277.618 561.093 282.985 563.922 287.484 565.166C292.766 566.631 304.848 564.62 304.865 564.603Z" fill="#9C9C9C"/>
<path d="M237.182 668.633C241.578 665.753 247.644 656.125 248.121 655.358C253.621 658.839 259.348 661.947 265.264 664.662C268.672 666.264 272.216 667.781 275.76 669.246C274.056 668.803 272.506 668.445 272.352 668.411C266.167 667.593 253.745 669.655 250.763 675.96C250.295 677.025 250.058 678.177 250.066 679.34C250.074 680.503 250.328 681.651 250.811 682.709C251.293 683.768 251.994 684.712 252.866 685.481C253.739 686.25 254.764 686.826 255.875 687.172C260.51 688.876 266.099 686.644 270.069 684.088C274.039 681.532 279.356 673.37 280.736 671.206L284.826 672.91C291.386 675.517 297.929 678.022 304.285 680.816C306.518 681.77 308.682 682.81 310.863 683.815C309.329 683.44 308.051 683.134 307.847 683.117C301.661 682.299 289.256 684.361 286.257 690.665C285.79 691.729 285.552 692.88 285.561 694.042C285.569 695.204 285.823 696.351 286.306 697.408C286.788 698.465 287.489 699.408 288.362 700.175C289.234 700.943 290.259 701.517 291.369 701.861C296.021 703.565 301.678 701.332 305.563 698.776C309.448 696.22 314.322 688.859 315.992 686.303C318.173 687.411 320.371 688.518 322.45 689.711C323.847 690.546 325.262 691.245 326.625 692.165L330.68 694.772C333.185 696.476 335.792 698.316 338.212 700.088C339.916 701.315 341.484 702.508 343.085 703.701C340.87 702.73 336.491 700.889 336.099 700.787C330.118 699.083 317.525 699.202 313.623 704.979C312.998 705.957 312.586 707.055 312.415 708.203C312.243 709.351 312.316 710.522 312.628 711.64C312.94 712.757 313.484 713.797 314.225 714.69C314.966 715.583 315.888 716.309 316.929 716.822C321.257 719.156 327.153 717.861 331.43 715.919C336.082 713.789 343.358 705.558 344.176 704.519C346.817 706.513 349.373 708.472 351.742 710.364C358.66 715.833 364.419 720.758 368.782 724.609L372.19 721.508C367.623 717.657 361.523 712.647 354.178 707.092C351.503 705.064 348.606 702.934 345.658 700.787C347.231 697.639 348.619 694.401 349.816 691.091C355.047 691.62 364.897 688.91 366.175 688.552C367.282 691.671 368.322 694.721 369.259 697.601C371.951 705.831 374.013 712.937 375.53 718.577L379.346 715.169C377.762 709.903 375.717 703.479 373.178 696.237C372.07 693.068 370.826 689.711 369.497 686.269C370.673 685.604 380.147 680.083 383.129 675.926C385.839 672.143 388.241 666.571 386.776 661.851C386.467 660.734 385.927 659.695 385.191 658.801C384.455 657.906 383.539 657.176 382.503 656.657C381.467 656.138 380.334 655.843 379.177 655.789C378.02 655.736 376.864 655.926 375.785 656.347C369.361 659.09 366.805 671.41 367.367 677.613C367.367 677.988 368.219 681.924 368.765 684.429C368.219 683.014 367.708 681.651 367.061 680.22C365.936 677.357 364.726 674.545 363.448 671.512C362.767 670.064 362.102 668.616 361.403 667.15C360.705 665.685 359.887 664.202 359.12 662.703C357.297 659.295 355.269 655.887 353.139 652.479C355.644 651.49 364.454 647.844 367.725 644.504C370.997 641.164 374.2 635.984 373.451 631.162C373.319 630.01 372.946 628.899 372.356 627.902C371.766 626.904 370.973 626.042 370.028 625.371C369.082 624.701 368.006 624.237 366.87 624.011C365.733 623.784 364.561 623.799 363.431 624.056C356.615 625.76 352.27 637.586 351.895 643.805C351.895 644.18 352.1 648.679 352.27 651.15C350.975 649.139 349.697 647.128 348.334 645.134C344.38 639.392 340.189 633.701 336.048 628.009C334.77 626.305 333.526 624.516 332.282 622.761C333.168 622.42 343.733 618.313 347.396 614.582C350.651 611.174 353.872 606.062 353.139 601.222C353.005 600.07 352.63 598.959 352.038 597.961C351.447 596.964 350.652 596.102 349.705 595.431C348.759 594.761 347.681 594.298 346.544 594.071C345.406 593.845 344.234 593.86 343.102 594.117C336.286 595.821 331.941 607.646 331.566 613.866C331.566 614.343 331.873 620.801 332.043 622.386C329.283 618.518 326.574 614.65 324.052 610.731C320.613 605.459 317.528 599.966 314.816 594.287C315.225 594.134 326.267 589.891 330.016 586.057C333.27 582.649 336.491 577.537 335.758 572.714C335.626 571.563 335.254 570.452 334.664 569.454C334.074 568.457 333.281 567.595 332.335 566.924C331.39 566.254 330.314 565.79 329.177 565.563C328.041 565.337 326.869 565.352 325.739 565.609C318.923 567.313 314.577 579.138 314.203 585.358C314.203 585.767 314.424 590.692 314.594 593.026L314.22 593.128C311.627 587.345 309.563 581.34 308.051 575.185C307.182 571.777 306.535 568.523 305.972 565.336C308.102 564.757 317.9 562.013 321.615 558.929C325.33 555.845 328.976 551.21 328.789 546.285C328.779 545.126 328.526 543.981 328.047 542.926C327.567 541.87 326.871 540.927 326.003 540.158C325.136 539.389 324.116 538.81 323.011 538.459C321.906 538.109 320.74 537.994 319.587 538.123C312.686 539.094 307.012 550.341 305.955 556.492C305.955 556.816 305.683 560.275 305.563 562.797C305.342 561.349 305.069 559.866 304.882 558.469C304.149 553.238 303.791 548.415 303.501 544.138C303.365 541.702 303.297 539.486 303.246 537.425C305.035 535.721 312.226 528.905 314.1 524.593C315.975 520.282 317.082 514.369 314.646 510.075C314.106 509.048 313.356 508.145 312.444 507.427C311.533 506.708 310.48 506.19 309.355 505.905C308.229 505.621 307.057 505.577 305.913 505.775C304.77 505.974 303.681 506.412 302.718 507.059C297.026 511.115 297.18 523.707 299.071 529.654C299.241 530.166 302.701 537.902 302.803 537.816L302.905 537.714C302.905 539.691 302.905 541.821 303.041 544.155C303.229 548.449 303.467 553.306 304.098 558.571C304.713 564.245 305.657 569.877 306.926 575.441C308.317 581.687 310.268 587.795 312.754 593.691L312.856 593.895C311.527 592.345 307.659 588.136 307.318 587.846C302.615 583.756 291.113 578.627 285.166 582.24C284.19 582.866 283.357 583.69 282.721 584.66C282.085 585.63 281.66 586.723 281.475 587.868C281.29 589.013 281.349 590.184 281.647 591.305C281.946 592.426 282.477 593.471 283.207 594.372C286.172 598.309 292.085 599.621 296.754 599.638C302.002 599.638 312.362 594.952 313.197 594.526C315.866 600.466 318.929 606.221 322.365 611.753C324.341 614.974 326.437 618.177 328.584 621.347C327.392 620.052 326.318 618.893 326.148 618.739C321.445 614.667 309.943 609.521 303.996 613.133C303.019 613.759 302.186 614.584 301.55 615.554C300.914 616.524 300.489 617.617 300.304 618.762C300.12 619.907 300.178 621.078 300.477 622.198C300.775 623.319 301.306 624.364 302.036 625.266C304.984 629.219 310.914 630.514 315.583 630.531C320.252 630.548 329.215 626.714 331.566 625.675C332.401 626.885 333.27 628.111 334.071 629.321C338.093 635.098 342.131 640.874 345.999 646.634C347.345 648.679 348.589 650.724 349.833 652.768C348.777 651.61 347.874 650.655 347.72 650.519C343.017 646.429 331.515 641.3 325.568 644.913C324.593 645.54 323.761 646.366 323.127 647.336C322.492 648.307 322.07 649.4 321.887 650.545C321.703 651.69 321.763 652.861 322.063 653.981C322.363 655.101 322.895 656.145 323.626 657.045C326.574 660.982 332.504 662.294 337.155 662.311C341.807 662.328 349.935 658.903 352.73 657.642C353.957 659.772 355.184 661.902 356.257 664.032C356.973 665.497 357.757 666.86 358.37 668.377C358.984 669.894 359.682 671.342 360.313 672.79C361.454 675.653 362.63 678.584 363.721 681.396C364.454 683.338 365.118 685.212 365.783 687.087C364.488 685.042 361.829 681.106 361.574 680.799C357.86 676.746 353.166 673.718 347.942 672.006C347.554 671.533 347.12 671.099 346.647 670.711C345.775 669.948 344.752 669.378 343.644 669.036C342.537 668.694 341.371 668.588 340.22 668.726C339.069 668.865 337.961 669.243 336.966 669.838C335.971 670.432 335.113 671.229 334.446 672.177C330.595 678.005 335.264 689.694 339.166 694.567C339.388 694.857 342.233 697.686 344.057 699.441L340.206 696.936C337.701 695.232 335.094 693.528 332.401 691.671L328.295 689.149C326.931 688.28 325.398 687.53 323.932 686.712C320.524 684.872 316.963 683.168 313.351 681.6C314.884 679.402 320.167 671.512 321.104 666.912C322.041 662.311 321.819 656.279 318.531 652.615C317.784 651.729 316.858 651.009 315.815 650.504C314.772 649.998 313.634 649.718 312.475 649.681C311.316 649.644 310.163 649.851 309.09 650.289C308.016 650.727 307.047 651.386 306.245 652.223C301.559 657.335 304.405 669.655 307.506 675.057C307.71 675.397 310.369 679.01 311.885 680.97C309.704 680.015 307.523 679.044 305.291 678.141C298.815 675.534 292.187 673.029 285.592 670.626C283.565 669.876 281.554 669.093 279.543 668.326C280.106 667.559 286.649 658.306 287.637 653.16C288.523 648.594 288.37 642.527 285.064 638.864C284.317 637.977 283.392 637.258 282.349 636.753C281.305 636.247 280.167 635.967 279.009 635.93C277.85 635.893 276.696 636.1 275.623 636.538C274.55 636.976 273.58 637.635 272.778 638.472C268.092 643.584 270.938 655.904 274.056 661.305C274.278 661.714 278.129 666.912 279.168 668.121C274.738 666.417 270.342 664.713 266.065 662.822C260.291 660.322 254.69 657.441 249.297 654.2C249.553 653.842 256.437 644.214 257.442 638.949C258.311 634.382 258.158 628.316 254.869 624.652C254.122 623.766 253.197 623.047 252.154 622.541C251.11 622.036 249.972 621.755 248.814 621.718C247.655 621.682 246.502 621.889 245.428 622.327C244.355 622.765 243.386 623.423 242.583 624.26C237.897 629.372 240.743 641.692 243.844 647.094C244.049 647.452 246.98 651.422 248.428 653.28L248.156 653.569C242.811 650.169 237.781 646.297 233.126 641.999C230.519 639.665 228.168 637.296 225.935 634.927C227.401 633.223 234.012 625.607 235.461 620.955C236.909 616.303 237.335 610.458 234.472 606.471C233.823 605.51 232.978 604.697 231.994 604.083C231.01 603.469 229.908 603.069 228.76 602.909C227.611 602.748 226.442 602.83 225.327 603.15C224.212 603.47 223.177 604.021 222.289 604.767C217.075 609.402 218.557 621.909 221.045 627.617C221.181 627.924 222.919 630.923 224.214 633.087C223.226 632.014 222.187 630.923 221.249 629.867C217.841 625.913 214.791 622.079 212.201 618.654C210.736 616.695 209.458 614.905 208.265 613.218C208.861 610.833 211.111 601.205 210.259 596.519C209.407 591.833 207.089 586.295 202.693 584.114C201.678 583.556 200.557 583.218 199.403 583.122C198.249 583.026 197.087 583.174 195.994 583.557C194.901 583.939 193.901 584.548 193.059 585.343C192.216 586.137 191.551 587.101 191.106 588.17C188.601 594.679 195.672 605.09 200.512 609.01C200.938 609.35 208.095 613.883 208.129 613.764C208.132 613.713 208.132 613.661 208.129 613.61C209.236 615.314 210.446 617.018 211.792 618.927C214.314 622.335 217.211 626.322 220.636 630.361C224.284 634.756 228.181 638.937 232.308 642.885C236.918 647.292 241.907 651.283 247.218 654.813L247.423 654.932C245.463 654.37 239.908 652.99 239.465 652.939C233.28 652.121 220.875 654.183 217.875 660.487C217.408 661.553 217.171 662.704 217.179 663.867C217.187 665.031 217.441 666.179 217.923 667.237C218.406 668.295 219.106 669.24 219.979 670.009C220.852 670.778 221.877 671.354 222.987 671.7C227.639 673.37 233.297 671.206 237.182 668.633Z" fill="#9C9C9C"/>
<path d="M555.983 236.362C559.63 242.462 572.768 251.408 572.785 251.408C572.802 251.408 576.056 240.963 576.193 240.264C577.59 232.306 575.613 216.084 567.673 211.858C566.323 211.193 564.849 210.819 563.345 210.76C561.842 210.702 560.343 210.961 558.946 211.521C557.549 212.08 556.286 212.927 555.238 214.007C554.19 215.087 553.382 216.375 552.865 217.788C550.394 223.718 552.882 231.182 555.983 236.362Z" fill="#9C9C9C"/>
<path d="M684.823 332.706C684.823 332.859 693.343 325.788 693.803 325.277C699.375 319.398 706.668 304.829 702.323 296.837C701.564 295.537 700.541 294.411 699.318 293.533C698.096 292.655 696.702 292.044 695.228 291.74C693.754 291.436 692.233 291.446 690.763 291.77C689.293 292.093 687.908 292.722 686.697 293.616C681.432 297.246 679.404 304.846 679.114 310.878C678.79 317.966 684.823 332.689 684.823 332.706Z" fill="#9C9C9C"/>
<path d="M533.678 277.036C538.602 281.757 552.541 286.664 553.649 287.039C550.837 295.006 548.56 303.153 546.833 311.423C545.793 316.228 544.89 321.119 544.055 326.026C544.055 323.726 544.055 321.664 544.055 321.375C543.305 313.332 537.12 298.2 528.276 296.241C526.798 295.953 525.276 295.98 523.809 296.32C522.342 296.659 520.963 297.304 519.762 298.213C518.562 299.121 517.565 300.272 516.839 301.591C516.113 302.91 515.673 304.368 515.547 305.868C514.797 312.224 519.194 318.767 523.556 322.908C527.918 327.049 539.778 331.581 542.913 332.706C542.607 334.581 542.283 336.472 541.993 338.346C540.579 347.395 539.216 356.426 537.597 365.253C537.035 368.354 536.353 371.404 535.688 374.454C535.688 372.409 535.688 370.688 535.688 370.433C534.939 362.373 528.753 347.258 519.909 345.282C518.431 344.997 516.91 345.026 515.444 345.368C513.978 345.71 512.6 346.357 511.401 347.267C510.202 348.177 509.208 349.329 508.484 350.649C507.759 351.969 507.321 353.426 507.198 354.926C506.448 361.265 510.827 367.809 515.189 371.966C519.552 376.124 530.27 380.18 533.933 381.543C533.167 384.644 532.4 387.745 531.514 390.71C530.849 392.721 530.372 394.698 529.605 396.691L527.458 402.57C525.976 406.251 524.459 410.068 522.908 413.646C521.852 416.117 520.796 418.468 519.739 420.837C520.335 417.753 521.443 411.687 521.443 411.175C521.92 403.098 518.035 387.217 509.651 383.911C508.233 383.403 506.724 383.199 505.222 383.314C503.719 383.428 502.258 383.858 500.933 384.575C499.609 385.292 498.45 386.281 497.533 387.476C496.615 388.671 495.96 390.046 495.61 391.511C493.906 397.663 497.314 404.802 500.927 409.591C504.982 414.873 517.473 421.621 519.04 422.456C517.336 426.358 515.53 430.158 513.826 433.702C508.885 444.045 504.318 452.736 500.705 459.399L505.63 462.909C509.208 456.093 513.775 446.874 518.683 435.969C520.489 431.998 522.346 427.721 524.204 423.308C528.637 424.403 533.132 425.228 537.665 425.779C538.517 432.595 544.771 444.25 545.589 445.749C541.959 448.05 538.415 450.248 535.024 452.259C525.396 458.052 516.927 462.721 510.299 466.249L515.666 470.083C521.886 466.572 529.418 462.142 537.818 456.843C541.516 454.525 545.418 451.969 549.389 449.311C550.564 450.606 560.277 461 566.429 463.59C572.001 465.925 579.737 467.373 585.275 464.153C586.603 463.445 587.768 462.465 588.692 461.277C589.616 460.089 590.279 458.719 590.637 457.257C590.996 455.796 591.042 454.275 590.773 452.794C590.504 451.313 589.925 449.905 589.075 448.663C583.758 441.319 567.434 441.643 559.732 444.148C559.289 444.301 554.535 446.448 551.57 447.862C553.189 446.772 554.773 445.715 556.426 444.574C559.715 442.324 562.935 439.99 566.395 437.502L571.336 433.668C573.04 432.407 574.625 430.891 576.295 429.493C580.095 426.188 583.792 422.677 587.422 418.997C589.399 421.859 596.555 431.964 601.719 435.134C606.882 438.303 614.311 440.893 620.258 438.542C621.679 438.043 622.978 437.25 624.072 436.216C625.166 435.181 626.03 433.928 626.607 432.537C627.184 431.147 627.462 429.65 627.422 428.145C627.382 426.64 627.025 425.16 626.375 423.802C622.235 415.742 606.03 413.578 598.055 414.89C597.561 414.975 591.938 416.594 588.87 417.48C591.034 415.282 593.216 413.084 595.329 410.766C601.463 404.121 607.461 397.134 613.459 390.318C615.299 388.205 617.174 386.127 619.014 384.048C619.713 385.07 627.943 397.254 633.737 400.815C638.849 403.967 646.329 406.575 652.293 404.223C653.712 403.722 655.01 402.929 656.102 401.893C657.194 400.858 658.056 399.604 658.631 398.214C659.207 396.824 659.483 395.328 659.442 393.823C659.401 392.319 659.044 390.84 658.394 389.483C654.253 381.423 638.048 379.259 630.073 380.571C629.477 380.657 621.383 382.957 619.355 383.639C623.445 379.038 627.551 374.488 631.794 370.16C637.482 364.298 643.544 358.811 649.942 353.733C650.266 354.211 658.803 366.974 664.732 370.62C669.844 373.773 677.325 376.363 683.289 374.028C684.708 373.528 686.006 372.734 687.098 371.698C688.19 370.663 689.052 369.41 689.627 368.019C690.203 366.629 690.479 365.133 690.438 363.628C690.397 362.124 690.04 360.646 689.389 359.289C685.249 351.229 669.044 349.065 661.069 350.394C660.541 350.394 654.389 352.217 651.475 353.103L651.237 352.643C657.819 347.708 664.827 343.368 672.179 339.675C676.2 337.597 680.154 335.841 684.107 334.206C685.453 336.745 691.741 348.281 696.717 352.149C701.692 356.017 708.645 359.254 714.779 357.585C716.244 357.243 717.62 356.597 718.819 355.689C720.018 354.78 721.012 353.629 721.737 352.312C722.462 350.994 722.901 349.538 723.026 348.039C723.152 346.54 722.96 345.032 722.464 343.612C719.226 335.092 703.379 331.207 695.302 331.684C694.859 331.684 690.412 332.451 687.191 333.013C688.895 332.314 690.77 331.547 692.474 330.9C698.881 328.463 704.879 326.623 710.229 325.038C713.262 324.152 716.04 323.334 718.63 322.755C721.254 324.561 731.904 331.701 738.004 332.808C744.105 333.916 751.824 333.643 756.527 329.315C757.67 328.337 758.595 327.128 759.24 325.769C759.886 324.409 760.237 322.929 760.273 321.424C760.308 319.919 760.026 318.424 759.445 317.036C758.865 315.647 757.998 314.397 756.902 313.366C750.086 307.351 734.256 311.168 727.286 315.257C726.673 315.615 717.897 322.244 718.034 322.346L718.187 322.448C715.682 323.027 712.99 323.692 710.059 324.459C704.691 325.941 698.608 327.662 692.133 329.963C685.124 332.404 678.263 335.249 671.583 338.483C664.086 342.048 656.918 346.267 650.163 351.092L649.942 351.28C651.509 349.15 655.735 343.049 656.008 342.538C659.825 335.398 663.011 319.381 656.724 312.855C655.646 311.804 654.36 310.992 652.949 310.47C651.537 309.948 650.032 309.728 648.53 309.824C647.028 309.921 645.564 310.331 644.231 311.029C642.897 311.727 641.726 312.697 640.791 313.877C636.668 318.767 636.719 326.64 638.048 332.536C639.547 339.181 648.459 350.956 649.175 351.893C642.429 356.982 636.031 362.515 630.022 368.456C626.495 371.864 623.07 375.477 619.662 379.106C620.974 377.215 622.115 375.511 622.252 375.255C626.069 368.132 629.255 352.098 622.967 345.588C621.894 344.533 620.61 343.717 619.199 343.192C617.789 342.667 616.283 342.446 614.781 342.542C613.279 342.639 611.814 343.051 610.483 343.752C609.151 344.453 607.982 345.427 607.052 346.611C602.911 351.484 602.962 359.357 604.292 365.253C605.621 371.148 613.05 381.441 615.044 384.099L611.159 388.308C604.99 395.124 598.873 401.854 592.653 408.313C590.472 410.596 588.223 412.76 585.991 414.941C587.149 413.237 588.121 411.84 588.24 411.533C592.057 404.41 595.243 388.376 588.956 381.867C587.88 380.813 586.596 379.997 585.185 379.472C583.774 378.947 582.268 378.725 580.765 378.82C579.263 378.914 577.797 379.324 576.463 380.022C575.129 380.72 573.957 381.691 573.023 382.872C568.899 387.762 568.951 395.635 570.28 401.531C571.609 407.427 578.306 416.713 580.674 419.9C578.323 422.047 575.971 424.211 573.585 426.205C571.881 427.517 570.433 428.897 568.695 430.141L563.668 433.856C560.397 436.122 557.023 438.456 553.768 440.586C551.502 442.069 549.338 443.449 547.139 444.846C549.355 442.597 553.581 438.116 553.955 437.707C558.008 431.853 560.495 425.06 561.18 417.974C561.662 417.344 562.084 416.671 562.441 415.964C563.156 414.638 563.583 413.177 563.696 411.676C563.809 410.175 563.605 408.667 563.098 407.249C562.59 405.832 561.79 404.537 560.749 403.449C559.708 402.361 558.45 401.504 557.057 400.934C548.537 397.748 535.126 407.018 530.099 413.356C529.793 413.731 527.032 418.145 525.328 420.956C526.078 419.15 526.828 417.412 527.577 415.538C529.077 411.857 530.474 408.142 531.974 404.138C532.638 402.178 533.32 400.202 533.984 398.208C534.649 396.214 535.194 394.084 535.825 392.005C537.171 387.132 538.296 382.156 539.318 377.095C542.539 378.407 554.075 382.889 560.141 382.684C566.207 382.48 573.773 380.537 577.505 375.306C578.412 374.105 579.056 372.727 579.395 371.261C579.735 369.794 579.761 368.273 579.473 366.796C579.186 365.318 578.59 363.918 577.725 362.687C576.861 361.455 575.746 360.419 574.454 359.646C566.565 355.199 551.859 362.339 545.93 367.826C545.555 368.183 541.738 372.597 539.693 375.068C540.272 372.034 540.886 369.001 541.397 365.9C542.828 356.954 544.004 347.872 545.231 338.806C545.589 336.029 545.998 333.268 546.39 330.508C547.531 330.985 561.129 336.608 567.928 336.37C573.96 336.165 581.56 334.223 585.275 328.991C586.183 327.792 586.828 326.414 587.169 324.949C587.509 323.483 587.537 321.962 587.251 320.485C586.965 319.008 586.371 317.607 585.508 316.375C584.645 315.143 583.532 314.106 582.242 313.332C574.335 308.901 559.63 316.024 553.7 321.528C553.257 321.937 547.77 328.344 546.458 330.048C547.327 323.965 548.162 317.898 549.389 311.951C550.917 303.916 552.96 295.988 555.506 288.215C556.034 288.436 570.194 294.383 577.164 294.145C583.196 293.923 590.796 291.998 594.511 286.766C595.419 285.565 596.064 284.186 596.405 282.719C596.746 281.253 596.774 279.73 596.488 278.252C596.202 276.773 595.608 275.372 594.745 274.138C593.881 272.904 592.768 271.865 591.477 271.089C583.571 266.659 568.882 273.782 562.935 279.286C562.544 279.644 558.369 284.5 556.426 286.851L555.983 286.596C558.717 278.853 562.138 271.371 566.207 264.239C568.422 260.286 570.74 256.622 573.023 253.112C575.545 254.492 587.149 260.644 593.471 261.138C599.503 261.581 607.291 260.491 611.534 255.702C612.567 254.608 613.358 253.309 613.856 251.889C614.354 250.469 614.548 248.96 614.424 247.46C614.3 245.961 613.862 244.504 613.138 243.185C612.414 241.866 611.42 240.714 610.221 239.804C602.86 234.522 587.473 239.991 580.964 244.814C580.623 245.069 577.317 248.12 574.949 250.386C576.022 248.818 577.113 247.182 578.186 245.7C582.174 240.145 586.178 235.288 589.739 231.011C591.801 228.609 593.71 226.462 595.499 224.485C598.685 224.485 611.516 224.621 617.208 222.185C622.899 219.748 629.136 215.249 630.738 209.047C631.152 207.597 631.255 206.077 631.042 204.584C630.828 203.092 630.302 201.661 629.498 200.386C628.694 199.111 627.63 198.019 626.376 197.183C625.121 196.347 623.704 195.785 622.218 195.534C613.255 194.239 602.11 206.201 598.549 213.46C598.242 214.091 594.579 224.468 594.732 224.468H594.937C593.233 226.342 591.273 228.37 589.262 230.637C585.599 234.828 581.475 239.617 577.334 245.103C572.818 250.985 568.648 257.124 564.844 263.49C560.56 270.599 556.916 278.075 553.955 285.829L553.853 286.119C554.007 283.461 554.143 276.048 554.092 275.469C553.342 267.409 547.156 252.294 538.313 250.335C536.836 250.05 535.316 250.079 533.851 250.42C532.386 250.761 531.009 251.406 529.81 252.314C528.611 253.223 527.617 254.373 526.892 255.69C526.166 257.008 525.727 258.464 525.601 259.962C524.936 266.318 529.316 272.862 533.678 277.036Z" fill="#9C9C9C"/>
<path d="M636.736 576.992V571.283C636.736 541.889 673.951 540.611 673.951 519.686C673.951 510.604 666.556 504.674 655.548 504.674C643.501 504.674 635.884 511.234 635.884 520.538V522.872C635.884 525.19 634.623 526.28 632.288 526.28L609.676 525.428C607.563 525.428 606.081 524.372 606.081 522.907V520.572C606.081 495.012 626.375 477.444 656.195 477.444C685.368 477.444 704.18 493.939 704.18 518.664C704.18 553.766 666.334 553.988 666.334 573.192V576.992C666.392 577.478 666.338 577.97 666.178 578.433C666.018 578.895 665.754 579.315 665.408 579.661C665.062 580.007 664.642 580.27 664.18 580.431C663.718 580.591 663.225 580.644 662.739 580.587H640.331C639.845 580.644 639.352 580.591 638.89 580.431C638.428 580.27 638.008 580.007 637.662 579.661C637.316 579.315 637.052 578.895 636.892 578.433C636.732 577.97 636.678 577.478 636.736 576.992ZM634.827 611.072C634.827 601.768 643.075 594.151 653.009 594.151C662.534 594.151 670.986 601.768 670.986 611.072C670.986 620.375 662.466 627.992 652.805 627.992C643.143 627.992 634.827 620.341 634.827 611.037V611.072Z" fill="#263238"/>
<path d="M189.947 334.853V329.894C189.947 304.334 222.323 303.261 222.323 285.079C222.323 277.172 215.899 272.043 206.356 272.043C195.877 272.043 189.316 277.735 189.316 285.812V287.839C189.316 289.85 188.226 290.77 186.198 290.77L166.551 290.038C164.711 290.038 163.433 289.117 163.433 287.839V285.812C163.433 263.66 181.052 248.324 206.953 248.324C232.291 248.324 248.65 262.654 248.65 284.108C248.65 314.592 215.763 314.78 215.763 331.496V334.802C215.812 335.223 215.765 335.65 215.626 336.051C215.486 336.452 215.258 336.816 214.958 337.115C214.658 337.415 214.294 337.644 213.893 337.783C213.493 337.922 213.066 337.969 212.644 337.92H193.065C192.649 337.968 192.227 337.922 191.83 337.785C191.434 337.649 191.073 337.425 190.774 337.131C190.475 336.837 190.245 336.48 190.102 336.086C189.959 335.691 189.906 335.27 189.947 334.853ZM188.243 364.417C188.243 356.34 195.4 349.729 204.022 349.729C212.286 349.729 219.648 356.34 219.648 364.417C219.648 372.494 212.286 379.106 203.852 379.106C199.845 379.207 195.96 377.719 193.046 374.968C190.131 372.216 188.423 368.423 188.294 364.417H188.243Z" fill="#ADD8E6"/>
<path d="M601.224 139.319V136.814C601.224 123.915 617.549 123.352 617.549 114.168C617.549 110.181 614.294 107.573 609.472 107.573C604.189 107.573 600.85 110.453 600.85 114.543V115.565C600.85 116.588 600.287 117.048 599.265 117.048L589.348 116.673C588.41 116.673 587.763 116.213 587.763 115.565V114.543C587.763 103.313 596.675 95.6113 609.761 95.6113C622.559 95.6113 630.823 102.853 630.823 113.708C630.823 129.044 614.209 129.197 614.209 137.564V139.268C614.234 139.481 614.21 139.698 614.139 139.9C614.068 140.103 613.952 140.287 613.799 140.438C613.646 140.589 613.461 140.704 613.257 140.772C613.054 140.841 612.837 140.863 612.624 140.835H602.792C602.584 140.862 602.373 140.841 602.175 140.775C601.976 140.709 601.795 140.599 601.644 140.454C601.494 140.308 601.378 140.13 601.305 139.934C601.232 139.738 601.205 139.527 601.224 139.319ZM600.389 154.263C600.28 152.67 600.653 151.08 601.459 149.702C602.265 148.323 603.467 147.219 604.909 146.532C606.351 145.846 607.966 145.609 609.544 145.854C611.123 146.098 612.591 146.811 613.759 147.901C614.926 148.99 615.739 150.406 616.091 151.964C616.442 153.522 616.318 155.15 615.732 156.635C615.146 158.121 614.127 159.396 612.807 160.295C611.487 161.194 609.927 161.675 608.33 161.675C607.322 161.712 606.316 161.549 605.37 161.196C604.425 160.843 603.559 160.306 602.821 159.618C602.083 158.929 601.489 158.102 601.071 157.183C600.654 156.264 600.422 155.272 600.389 154.263Z" fill="#ADD8E6"/>
<path d="M122.69 483.936V480.784C122.69 464.528 143.274 463.829 143.274 452.242C143.274 447.215 139.185 443.943 133.05 443.943C126.388 443.943 122.179 447.573 122.179 452.719V453.997C122.179 455.292 121.48 455.871 120.185 455.871L107.678 455.411C106.502 455.411 105.684 454.815 105.684 453.997V452.719C105.684 438.576 116.914 428.863 133.408 428.863C149.545 428.863 159.94 437.979 159.94 451.662C159.94 471.071 139.014 471.19 139.014 481.84V483.936C139.048 484.206 139.019 484.48 138.93 484.736C138.842 484.993 138.696 485.227 138.504 485.419C138.312 485.611 138.078 485.757 137.821 485.846C137.564 485.934 137.291 485.963 137.021 485.93H124.65C124.383 485.957 124.113 485.924 123.86 485.833C123.608 485.742 123.379 485.596 123.19 485.404C123.002 485.213 122.86 484.981 122.773 484.727C122.686 484.473 122.658 484.203 122.69 483.936ZM121.634 502.765C121.5 500.758 121.974 498.757 122.994 497.022C124.014 495.288 125.532 493.901 127.351 493.041C129.171 492.182 131.206 491.89 133.194 492.204C135.181 492.518 137.028 493.423 138.494 494.801C139.96 496.179 140.977 497.966 141.413 499.93C141.849 501.895 141.683 503.944 140.938 505.813C140.192 507.682 138.901 509.283 137.233 510.408C135.565 511.533 133.597 512.13 131.585 512.12C129.021 512.203 126.528 511.264 124.656 509.51C122.783 507.756 121.684 505.33 121.6 502.765H121.634Z" stroke="#263238" stroke-miterlimit="10"/>
<path d="M279.458 189.792V187.627C279.458 176.449 293.618 175.955 293.618 167.997C293.618 164.589 290.807 162.289 286.615 162.289C282.031 162.289 279.134 164.777 279.134 168.321V169.207C279.134 170.093 278.657 170.485 277.771 170.485L269.251 170.161C268.45 170.161 267.888 169.77 267.888 169.207V168.321C267.888 158.591 275.607 151.912 286.939 151.912C298.27 151.912 305.018 158.182 305.018 167.588C305.018 180.948 290.619 181.033 290.619 188.343V189.792C290.641 189.976 290.621 190.163 290.56 190.338C290.5 190.513 290.4 190.673 290.269 190.804C290.137 190.935 289.978 191.035 289.803 191.096C289.627 191.156 289.44 191.177 289.256 191.155H280.736C280.559 191.163 280.381 191.133 280.217 191.066C280.052 191 279.904 190.898 279.782 190.768C279.661 190.639 279.569 190.484 279.513 190.316C279.457 190.147 279.438 189.968 279.458 189.792ZM278.742 202.742C278.667 201.38 279.003 200.028 279.704 198.859C280.406 197.689 281.443 196.758 282.68 196.184C283.917 195.61 285.297 195.421 286.643 195.64C287.989 195.859 289.238 196.477 290.23 197.413C291.221 198.35 291.908 199.562 292.203 200.893C292.498 202.225 292.386 203.614 291.883 204.881C291.38 206.149 290.509 207.236 289.381 208.003C288.254 208.77 286.922 209.181 285.558 209.183C283.798 209.243 282.087 208.602 280.799 207.4C279.512 206.199 278.753 204.536 278.691 202.776L278.742 202.742Z" fill="#263238"/>
<path d="M531.65 656.943V654.779C531.65 643.601 545.81 643.123 545.81 635.149C545.81 631.741 542.999 629.44 538.807 629.44C534.223 629.44 531.326 631.928 531.326 635.473V636.359C531.326 637.245 530.849 637.654 529.963 637.654L521.443 637.33C520.642 637.33 520.08 636.921 520.08 636.359V635.473C520.08 625.743 527.799 619.063 539.131 619.063C550.462 619.063 557.398 625.334 557.398 634.757C557.398 648.099 542.999 648.184 542.999 655.495V656.943C543.02 657.128 543 657.315 542.939 657.491C542.878 657.667 542.779 657.827 542.648 657.96C542.517 658.092 542.358 658.194 542.183 658.257C542.008 658.32 541.821 658.342 541.636 658.323H533.116C532.923 658.36 532.724 658.35 532.535 658.295C532.347 658.24 532.174 658.141 532.031 658.007C531.888 657.872 531.779 657.705 531.713 657.52C531.647 657.336 531.625 657.138 531.65 656.943ZM530.934 669.893C530.859 668.532 531.195 667.179 531.896 666.01C532.598 664.841 533.635 663.909 534.872 663.335C536.109 662.762 537.49 662.572 538.835 662.791C540.181 663.01 541.431 663.628 542.422 664.564C543.413 665.501 544.1 666.713 544.395 668.045C544.69 669.376 544.578 670.765 544.075 672.033C543.572 673.3 542.701 674.388 541.573 675.154C540.446 675.921 539.114 676.332 537.75 676.334C535.996 676.376 534.297 675.722 533.024 674.515C531.75 673.308 531.005 671.647 530.951 669.893H530.934Z" stroke="#263238" stroke-miterlimit="10"/>
<path d="M464.938 695.726C464.819 695.368 464.7 695.01 464.564 694.653C464.427 694.295 464.325 693.92 464.189 693.562C464.052 693.204 463.95 692.846 463.814 692.488C463.677 692.131 463.575 691.756 463.439 691.398C463.303 691.04 463.2 690.682 463.064 690.324C462.928 689.967 462.825 689.592 462.689 689.234L462.314 688.16C462.195 687.785 462.059 687.428 461.939 687.07L461.565 685.996C461.445 685.621 461.309 685.263 461.19 684.906L460.815 683.832C460.695 683.457 460.559 683.099 460.44 682.742L460.082 681.6C459.963 681.225 459.826 680.867 459.707 680.509L459.315 679.436C459.196 679.061 459.077 678.703 458.94 678.345C458.804 677.987 458.702 677.63 458.565 677.272C458.429 676.914 458.327 676.539 458.191 676.181C458.054 675.823 457.952 675.465 457.816 675.108C452.261 658.204 435.084 645.799 416.187 645.799C397.869 645.799 381.937 656.466 375.291 671.495C375.121 671.836 374.967 672.194 374.814 672.535L374.354 673.591C374.183 673.932 374.03 674.273 373.877 674.631C373.723 674.988 373.553 675.329 373.4 675.67L372.939 676.709C372.769 677.067 372.616 677.408 372.462 677.766C372.309 678.124 372.139 678.447 371.985 678.805C371.832 679.163 371.661 679.487 371.508 679.845L371.048 680.884C370.878 681.225 370.724 681.583 370.571 681.924C370.418 682.264 370.247 682.622 370.094 682.963L369.634 684.02C369.463 684.36 369.31 684.701 369.157 685.059C369.003 685.417 368.833 685.758 368.679 686.098L368.219 687.138C368.049 687.496 367.896 687.837 367.742 688.194C367.589 688.552 367.419 688.876 367.265 689.234L366.805 690.273C366.635 690.614 366.481 690.972 366.328 691.313C366.175 691.654 366.004 692.011 365.851 692.369C362.927 698.595 361.426 705.394 361.455 712.272C361.455 739.706 385.14 762.131 414.432 762.131C443.093 762.131 468.023 739.706 468.023 712.272C468.017 707.041 467.1 701.852 465.313 696.936C465.194 696.442 465.075 696.084 464.938 695.726Z" fill="#263238"/>
<path d="M424.4 318.307C336.525 318.307 276.698 370.024 276.698 445.443V452.259C276.714 453.385 277.02 454.488 277.587 455.461C278.154 456.434 278.963 457.245 279.935 457.814C280.303 458.167 280.702 458.487 281.128 458.768C281.497 459.127 281.903 459.447 282.338 459.722C282.707 460.081 283.113 460.401 283.548 460.676C283.914 461.039 284.319 461.359 284.758 461.631C285.121 461.989 285.521 462.309 285.95 462.585C286.319 462.949 286.725 463.275 287.16 463.556C287.534 463.91 287.939 464.229 288.37 464.51C288.74 464.868 289.146 465.188 289.58 465.465C289.944 465.822 290.344 466.142 290.773 466.419C291.173 466.805 291.613 467.147 292.085 467.441C292.432 467.758 292.802 468.048 293.192 468.31C293.566 468.664 293.971 468.984 294.402 469.265C294.77 469.618 295.169 469.938 295.595 470.219C295.969 470.573 296.374 470.892 296.805 471.173C297.175 471.531 297.58 471.851 298.015 472.127C298.379 472.485 298.778 472.805 299.207 473.081C299.578 473.439 299.983 473.759 300.417 474.036C300.781 474.393 301.181 474.713 301.61 474.99C301.984 475.344 302.389 475.663 302.82 475.944C303.184 476.302 303.584 476.622 304.013 476.898C305.982 478.631 308.551 479.524 311.17 479.386L365.97 481.431C371.61 481.431 374.678 478.875 374.678 473.235V467.612C374.678 445.068 393.115 429.203 422.39 429.203C449.023 429.203 466.949 443.534 466.949 465.567C466.95 468.077 466.71 470.582 466.234 473.047C438.731 509.104 367.146 525.002 367.146 594.986V611.821C367.146 618.637 370.878 622.403 377.745 622.403H443.724C450.54 622.403 454.323 618.671 454.323 611.821V600.592C454.323 543.883 565.883 543.252 565.883 439.802C565.883 366.905 510.401 318.307 424.4 318.307Z" fill="#263238"/>
<path d="M367.061 611.855V595.02C367.061 508.388 476.747 504.708 476.747 442.955C476.747 416.151 454.936 398.651 422.526 398.651C386.998 398.651 364.59 417.974 364.59 445.391V452.207C364.59 459.023 360.841 462.193 353.991 462.193L287.297 459.688C281.077 459.688 276.715 456.57 276.715 452.207V445.391C276.715 369.972 336.542 318.256 424.417 318.256C510.418 318.256 565.849 366.854 565.849 439.785C565.849 543.235 454.289 543.865 454.289 600.575V611.804C454.289 618.62 450.54 622.386 443.69 622.386H377.66C370.793 622.437 367.061 618.705 367.061 611.855ZM361.455 712.272C361.455 684.854 385.754 662.413 415.045 662.413C443.093 662.413 468.023 684.854 468.023 712.272C468.023 739.689 443.042 762.046 414.432 762.046C385.106 762.046 361.455 739.621 361.455 712.272Z" fill="#ADD8E6" stroke="#ADD8E6" stroke-miterlimit="10"/>
<path d="M411.706 817.92C463.099 817.92 504.761 808.605 504.761 797.114C504.761 785.623 463.099 776.308 411.706 776.308C360.312 776.308 318.65 785.623 318.65 797.114C318.65 808.605 360.312 817.92 411.706 817.92Z" fill="#E9F6FF" fill-opacity="0.5"/>
<path d="M340.581 325.208L337.019 332.978C337.019 332.978 316.333 335.21 316.333 336.761C316.333 338.312 316.554 348.996 317.679 349.439C318.534 349.772 319.482 349.772 320.337 349.439L350.805 341.652L353.701 327.866L340.581 325.208Z" fill="white" stroke="#263238" stroke-linecap="round" stroke-linejoin="round"/>
<path d="M334.787 339.096C331.004 342.195 326.923 344.912 322.603 347.207C317.679 349.422 317.491 352.779 319.059 352.779C320.627 352.779 334.531 346.951 334.531 346.951C334.531 346.951 347.158 343.645 348.981 342.64C350.805 341.635 351.009 336.045 351.009 336.045" fill="white"/>
<path d="M334.787 339.096C331.004 342.195 326.923 344.912 322.603 347.207C317.679 349.422 317.491 352.779 319.059 352.779C320.627 352.779 334.531 346.951 334.531 346.951C334.531 346.951 347.158 343.645 348.981 342.64C350.805 341.635 351.009 336.045 351.009 336.045" stroke="#263238" stroke-linecap="round" stroke-linejoin="round"/>
<path d="M358.779 175.904L346.067 273.339L337.224 326.094L356.854 330.729L371.491 268.329L378.426 229.052L358.779 175.904Z" fill="#7D7D7D" stroke="#263238" stroke-linecap="round" stroke-linejoin="round"/>
<path d="M461.36 105.358L453.607 104.131L437.726 98.1162L437.146 116.979L461.769 119.246L461.36 105.358Z" fill="white" stroke="#263238" stroke-linecap="round" stroke-linejoin="round"/>
<path d="M370.724 450.878C364.946 457.616 359.547 464.67 354.553 472.008C347.993 482.027 350.31 492.797 358.404 495.506C366.498 498.215 376.876 490.871 379.585 485.094C382.294 479.318 381.511 476.251 385.737 470.474C389.962 464.698 393.439 458.921 391.905 451.219C390.371 443.517 374.882 445.494 370.724 450.878Z" fill="#7D7D7D" stroke="#263238" stroke-linecap="round" stroke-linejoin="round"/>
<path d="M378.801 486.543C378.256 485.384 377.625 484.157 376.876 482.845C370.69 471.957 359.836 472.826 353.02 474.853C348.538 484.004 351.094 493.103 358.438 495.557C365.783 498.011 375.257 492.013 378.801 486.543Z" fill="white" stroke="#263238" stroke-linecap="round" stroke-linejoin="round"/>
<path d="M376.876 482.845C374.575 486.253 371.491 495.557 359.546 491.706C356.215 490.851 353.236 488.974 351.026 486.338C351.284 488.416 352.118 490.381 353.434 492.01C354.75 493.639 356.495 494.868 358.473 495.557C366.55 498.249 376.944 490.922 379.653 485.146C382.363 479.369 381.579 476.302 385.805 470.525C390.031 464.749 393.507 458.972 391.973 451.27C391.973 460.506 388.565 462.039 384.271 467.049C379.977 472.059 379.193 479.369 376.876 482.845Z" fill="white" stroke="#263238" stroke-linecap="round" stroke-linejoin="round"/>
<path d="M484.364 450.878C490.142 457.616 495.541 464.67 500.535 472.008C507.095 482.027 504.778 492.797 496.684 495.506C488.59 498.215 478.213 490.871 475.503 485.094C472.794 479.318 473.578 476.251 469.352 470.474C465.126 464.698 461.65 458.921 463.183 451.219C464.717 443.517 480.138 445.494 484.364 450.878Z" fill="#7D7D7D" stroke="#263238" stroke-linecap="round" stroke-linejoin="round"/>
<path d="M476.304 486.543C476.832 485.384 477.463 484.157 478.213 482.845C484.398 471.957 495.253 472.826 502.069 474.853C506.55 484.004 503.994 493.103 496.65 495.557C489.306 498.011 479.831 492.013 476.304 486.543Z" fill="white" stroke="#263238" stroke-linecap="round" stroke-linejoin="round"/>
<path d="M478.213 482.845C480.513 486.253 483.597 495.557 495.542 491.706C498.873 490.851 501.853 488.974 504.062 486.338C503.804 488.416 502.97 490.381 501.654 492.01C500.338 493.639 498.593 494.868 496.616 495.557C488.539 498.249 478.144 490.922 475.435 485.146C472.726 479.369 473.51 476.302 469.284 470.525C465.058 464.749 461.582 458.972 463.115 451.27C463.115 460.506 466.523 462.039 470.817 467.049C475.111 472.059 475.895 479.369 478.213 482.845Z" fill="white" stroke="#263238" stroke-linecap="round" stroke-linejoin="round"/>
<path d="M502.426 318.017C502.426 311.082 490.498 303.38 490.498 303.38C472.521 285.096 440.077 287.516 428.098 289.151C416.17 287.447 383.692 285.096 365.714 303.38C365.714 303.38 353.786 311.082 353.786 318.017C353.786 324.953 368.816 450.111 368.816 450.111C368.816 450.111 368.424 456.655 379.21 457.421C389.996 458.188 394.546 452.037 394.546 452.037L398.789 346.133C398.789 346.133 416.119 333.796 419.237 333.421C420.362 333.268 421.827 333.029 423.463 332.825V333.029C426.514 332.393 429.664 332.393 432.716 333.029V332.825C434.42 333.029 435.8 333.268 436.942 333.421C440.026 333.796 457.39 346.133 457.39 346.133L461.633 452.037C461.633 452.037 466.251 458.188 476.969 457.421C487.687 456.655 487.363 450.111 487.363 450.111C487.363 450.111 502.426 324.953 502.426 318.017Z" fill="#263238" stroke="#263238" stroke-linecap="round" stroke-linejoin="round"/>
<path d="M457.373 346.133C457.373 346.133 455.055 320.71 466.233 311.082" stroke="#707070" stroke-linecap="round" stroke-linejoin="round"/>
<path d="M398.84 346.133C398.84 346.133 399.999 324.953 397.682 317.251C395.364 309.549 391.513 306.464 391.513 306.464" stroke="#707070" stroke-linecap="round" stroke-linejoin="round"/>
<path d="M413.086 295.678C413.086 295.678 425.406 309.923 427.723 321.868" stroke="#707070" stroke-linecap="round" stroke-linejoin="round"/>
<path d="M440.043 296.496C440.043 296.496 433.108 304.198 432.341 309.974" stroke="#707070" stroke-linecap="round" stroke-linejoin="round"/>
<path d="M422.713 146.646C422.713 146.646 411.552 145.095 407.701 148.946C403.85 152.797 390.746 166.992 390.746 166.992L397.682 289.458C397.682 289.458 413.478 295.627 426.956 295.627C440.435 295.627 455.839 290.617 459.332 287.925C462.826 285.232 459.724 153.905 459.724 153.905C459.724 153.905 431.114 145.487 422.713 146.646Z" fill="#ADD8E6" stroke="#263238" stroke-linecap="round" stroke-linejoin="round"/>
<path d="M443.127 149.338C448.99 148.448 454.904 147.93 460.832 147.788C468.534 147.788 476.168 148.18 476.168 148.18L495.423 129.691L456.674 120.831L459.758 103.126C459.758 103.126 488.249 101.2 502.495 103.893C516.74 106.585 539.08 113.52 540.238 113.52C541.397 113.52 542.931 117.763 541.772 120.831C540.613 123.898 504.386 163.976 493.566 174.37C486.488 181.307 479.803 188.634 473.544 196.318L468.602 282.199C468.602 282.199 481.314 289.135 483.631 291.435C485.949 293.735 488.641 302.988 488.641 302.988C488.641 302.988 465.143 293.361 458.975 292.594C452.806 291.827 448.972 291.435 447.813 289.186C446.655 286.936 437.027 184.049 437.027 184.049L437.419 151.315C437.419 151.315 437.351 149.338 443.127 149.338Z" fill="#7D7D7D" stroke="#263238" stroke-linecap="round" stroke-linejoin="round"/>
<path d="M466.233 202.094L445.428 204.787L447.353 212.489L457.765 215.181L467.767 210.563L466.233 202.094Z" stroke="#263238" stroke-linecap="round" stroke-linejoin="round"/>
<path d="M478.162 155.882L473.544 196.318L485.489 162.05" stroke="#263238" stroke-linecap="round" stroke-linejoin="round"/>
<path d="M495.491 129.691C495.491 129.691 505.119 131.617 519.756 125.84" stroke="#263238" stroke-linecap="round" stroke-linejoin="round"/>
<path d="M505.511 132.384C511.836 132.56 518.161 132.046 524.374 130.85" stroke="#263238" stroke-linecap="round" stroke-linejoin="round"/>
<path d="M409.627 146.254L411.552 174.37C413.307 176.679 415.58 178.543 418.188 179.813C420.795 181.082 423.664 181.722 426.564 181.68C436.192 181.305 437.351 174.37 437.351 174.37V151.264L409.627 146.254Z" fill="white" stroke="#263238" stroke-linecap="round" stroke-linejoin="round"/>
<path d="M437.726 160.891L436.959 184.032L445.053 171.32C445.053 171.32 453.914 182.481 456.214 182.106C458.514 181.731 454.68 177.096 453.914 172.871C453.147 168.645 446.586 153.598 445.82 149.372C445.053 145.146 437.726 144.363 437.3 146.288C437.086 147.951 437.086 149.635 437.3 151.298L437.726 160.891Z" fill="#7D7D7D" stroke="#263238" stroke-linecap="round" stroke-linejoin="round"/>
<path d="M411.16 181.68C411.16 181.68 412.694 289.509 408.843 290.736C404.992 291.963 389.588 292.287 379.875 296.905C370.162 301.523 365.629 303.448 365.629 303.448C365.629 303.448 370.247 292.287 375.649 287.277C379.239 284.05 383.252 281.327 387.577 279.183L377.574 227.586C377.574 227.586 359.086 178.664 358.694 175.972C358.302 173.279 393.745 153.257 401.055 149.781C408.366 146.305 410.308 149.406 410.308 149.406L411.16 181.68Z" fill="#7D7D7D" stroke="#263238" stroke-linecap="round" stroke-linejoin="round"/>
<path d="M401.533 144.328C401.533 144.328 392.297 173.603 391.513 177.454C390.729 181.305 391.513 181.305 394.222 178.596C396.932 175.886 403.85 169.36 403.85 169.36L411.16 181.68L410.768 158.966V145.862C410.768 145.862 410.393 140.477 401.533 144.328Z" fill="#7D7D7D" stroke="#263238" stroke-linecap="round" stroke-linejoin="round"/>
<path d="M383.436 207.496H406.15L405.776 216.732L395.756 220.191L383.044 216.732L383.436 207.496Z" stroke="#263238" stroke-linecap="round" stroke-linejoin="round"/>
<path d="M445.82 106.21C445.82 106.21 451.204 129.691 452.363 133.474C453.522 137.257 446.211 152.354 443.843 155.813C442.942 157.314 441.702 158.582 440.222 159.517C438.743 160.452 437.065 161.028 435.323 161.198C432.631 161.198 417.993 156.205 414.517 153.888C411.041 151.57 407.599 148.878 407.599 148.878C405.961 149.625 404.14 149.878 402.36 149.605C400.581 149.333 398.919 148.547 397.579 147.344C392.962 143.101 386.793 138.092 388.327 134.633C389.074 132.935 390.324 131.508 391.909 130.545C393.494 129.582 395.337 129.129 397.187 129.248C401.43 129.248 399.897 128.856 399.897 128.856C399.897 128.856 392.195 117.695 392.195 108.834C392.195 99.9732 408.741 93.498 418.368 93.498C425.025 93.7755 431.565 95.3438 437.623 98.1159L445.82 106.21Z" fill="white" stroke="#263238" stroke-linecap="round" stroke-linejoin="round"/>
<path d="M432.341 115.054L439.276 128.157L432.341 132.775L429.257 128.924" stroke="#263238" stroke-linecap="round" stroke-linejoin="round"/>
<path d="M445.053 126.999C445.053 126.999 445.428 130.083 440.81 135.093" stroke="#263238" stroke-linecap="round" stroke-linejoin="round"/>
<path d="M425.031 119.876C425.031 121.682 424.247 123.148 423.327 123.148C422.407 123.148 421.623 121.682 421.623 119.876C421.623 118.07 422.407 116.604 423.327 116.604C424.247 116.604 425.031 118.07 425.031 119.876Z" fill="#263238"/>
<path d="M437.146 116.979C438.106 116.979 438.884 115.515 438.884 113.708C438.884 111.901 438.106 110.436 437.146 110.436C436.186 110.436 435.408 111.901 435.408 113.708C435.408 115.515 436.186 116.979 437.146 116.979Z" fill="#263238"/>
<path d="M404.225 86.1711C404.225 86.1711 379.994 95.0319 379.193 106.21C378.392 117.388 400.766 132.775 401.925 134.701C403.083 136.627 406.542 132.384 406.542 132.384C405.772 131.349 405.235 130.16 404.967 128.898C404.7 127.636 404.708 126.332 404.992 125.073C406.151 121.222 411.16 116.553 411.16 114.679C411.16 112.805 405.384 116.213 405.384 110.436C405.384 104.659 419.629 101.2 428.098 101.575C436.567 101.95 443.894 116.213 450.063 109.277C456.231 102.342 447.353 100.434 447.353 100.434C447.353 100.434 459.281 98.8829 459.281 92.7315C459.281 86.58 453.113 82.32 450.42 82.32C447.728 82.32 440.418 86.9549 440.418 81.9451C440.418 76.9354 447.728 74.6179 440.793 66.6091C433.858 58.6003 425.014 66.6091 425.014 69.6934C425.014 72.7776 422.696 78.5371 421.163 78.5371C419.629 78.5371 414.994 71.6189 409.61 75.4699C407.991 76.7572 406.671 78.3809 405.741 80.2285C404.811 82.0762 404.294 84.1038 404.225 86.1711Z" fill="#263238" stroke="#263238" stroke-linecap="round" stroke-linejoin="round"/>
<path d="M414.245 115.838L426.564 111.203" stroke="#263238" stroke-linecap="round" stroke-linejoin="round"/>
<path d="M428.49 105.818C428.254 104.609 428.447 103.356 429.035 102.274" stroke="#263238" stroke-linecap="round" stroke-linejoin="round"/>
<path d="M429.035 102.24C429.904 100.536 431.864 98.3375 436.192 96.5483" stroke="white" stroke-linecap="round" stroke-linejoin="round"/>
</svg>
