<svg width="320" height="24" viewBox="0 0 320 24" fill="none" xmlns="http://www.w3.org/2000/svg">
<path fill-rule="evenodd" clip-rule="evenodd" d="M241.254 0.0960894C196.265 0.368923 183.402 0.546407 158.44 1.23923C132.571 1.95722 114.059 2.67692 84.685 4.10657C77.8755 4.43799 70.5844 4.75252 62.0367 5.08348C30.6375 6.29923 24.5273 6.62319 14.3768 7.60998C9.34745 8.09902 4.99799 8.43744 2.56024 8.52969C0.392899 8.6116 0 8.66318 0 8.86571C0 9.04468 3.46637 9.20149 5.36233 9.10821C6.04178 9.0749 7.8826 8.99322 9.45321 8.92694C11.0238 8.86054 14.4802 8.68236 17.1339 8.53095C23.3831 8.17426 26.3835 8.06179 37.1235 7.78161C55.1786 7.31061 68.8178 6.85799 85.5713 6.1739C91.7454 5.92174 99.9431 5.587 103.788 5.42996C132.952 4.2388 168.576 3.17664 190.344 2.84935C216.76 2.45199 298.767 2.1007 297.382 2.39065C296.834 2.50564 287.449 3.3609 281.824 3.80869C276.656 4.22007 268.023 4.81341 257.403 5.48705C252.366 5.80664 245.454 6.24892 242.042 6.46994C229.224 7.30039 225.002 7.55794 217.719 7.95415C184.17 9.77921 162.009 11.3696 131.163 14.1655C112.829 15.8273 97.8013 17.735 81.031 20.5299C71.4962 22.1189 70.5672 22.4011 71.5057 23.4241C72.1164 24.0897 76.9273 24.176 86.6306 23.6952C104.363 22.8168 121.027 22.1354 137.17 21.6288C147.296 21.3111 148.637 21.2578 158.932 20.7645C162.777 20.5803 169.424 20.311 173.703 20.1663L181.482 19.9031L171.143 19.7994C155.475 19.6421 138.668 19.6517 133.133 19.821C114.808 20.3816 104.84 20.8131 88.5598 21.7503C84.6793 21.9738 81.4055 22.1374 81.2846 22.1139C80.1187 21.8872 106.215 18.4608 118.664 17.2061C146.767 14.3736 175.707 12.2602 220.181 9.79242C224.243 9.56703 232.396 9.07398 238.3 8.69684C244.203 8.31958 253.509 7.72566 258.979 7.37678C280.033 6.03421 286.306 5.53415 306.54 3.58526C319.5 2.337 319.569 2.32632 319.922 1.5054C320.31 0.602814 319.272 0.193279 316.298 0.0762186C313.472 -0.0350975 260.57 -0.0210854 241.254 0.0960894ZM182.321 19.812C182.566 19.8395 182.921 19.8384 183.109 19.8097C183.297 19.781 183.097 19.7585 182.664 19.7597C182.23 19.761 182.076 19.7846 182.321 19.812Z" fill="#EFA400"/>
</svg>
